<svg aria-hidden="true" style="position:absolute;width:0;height:0;overflow:hidden" xmlns="http://www.w3.org/2000/svg"><defs>
<symbol id="icon-logo" viewBox="0 0 31 32"><path   d="M3.097 11.869c.403.403.526.975.387 1.517a12.513 12.513 0 0 0 .155 6.782c1.363 4.506 5.326 7.897 9.972 8.594 8.547 1.254 15.778-6.286 13.982-14.895-1.006-4.846-5.001-8.686-9.863-9.538a12.656 12.656 0 0 0-5.357.201c-.542.139-1.13 0-1.517-.387-.867-.867-.434-2.307.728-2.617a15.764 15.764 0 0 1 7.277-.139c6.163 1.332 10.978 6.472 11.923 12.697 1.61 10.545-7.463 19.479-18.023 17.683C6.552 30.699 1.52 25.79.312 19.612a15.888 15.888 0 0 1 .186-7.014c.31-1.161 1.75-1.579 2.601-.728zM7.742 6.45c0 1.285-1.037 2.323-2.323 2.323S3.096 7.736 3.096 6.45c0-1.285 1.037-2.323 2.323-2.323S7.742 5.164 7.742 6.45zm7.789 5.404h-.108l-1.796 5.125h3.701l-1.796-5.125zm-.047 13.951c5.125 0 9.29-4.165 9.29-9.29s-4.165-9.29-9.29-9.29c-5.125 0-9.29 4.165-9.29 9.29s4.165 9.29 9.29 9.29zm-5.249-5.218 3.763-10.003c.232-.619.821-1.037 1.486-1.037s1.27.418 1.502 1.037l3.763 10.003a.993.993 0 0 1-.929 1.347c-.418 0-.805-.263-.945-.666l-.867-2.493h-5.001l-.883 2.508a.986.986 0 0 1-.945.666 1.013 1.013 0 0 1-.945-1.363z"/></symbol>
<symbol id="icon-facebook2" viewBox="0 0 32 32"><path d="M29 0H3C1.35 0 0 1.35 0 3v26c0 1.65 1.35 3 3 3h13V18h-4v-4h4v-2c0-3.306 2.694-6 6-6h4v4h-4c-1.1 0-2 .9-2 2v2h6l-1 4h-5v14h9c1.65 0 3-1.35 3-3V3c0-1.65-1.35-3-3-3z"/></symbol><symbol id="icon-instagram" viewBox="0 0 32 32"><path d="M16 2.881c4.275 0 4.781.019 6.462.094 1.563.069 2.406.331 2.969.55a4.952 4.952 0 0 1 1.837 1.194 5.015 5.015 0 0 1 1.2 1.838c.219.563.481 1.412.55 2.969.075 1.688.094 2.194.094 6.463s-.019 4.781-.094 6.463c-.069 1.563-.331 2.406-.55 2.969a4.94 4.94 0 0 1-1.194 1.837 5.02 5.02 0 0 1-1.837 1.2c-.563.219-1.413.481-2.969.55-1.688.075-2.194.094-6.463.094s-4.781-.019-6.463-.094c-1.563-.069-2.406-.331-2.969-.55a4.952 4.952 0 0 1-1.838-1.194 5.02 5.02 0 0 1-1.2-1.837c-.219-.563-.481-1.413-.55-2.969-.075-1.688-.094-2.194-.094-6.463s.019-4.781.094-6.463c.069-1.563.331-2.406.55-2.969a4.964 4.964 0 0 1 1.194-1.838 5.015 5.015 0 0 1 1.838-1.2c.563-.219 1.412-.481 2.969-.55 1.681-.075 2.188-.094 6.463-.094zM16 0c-4.344 0-4.887.019-6.594.094-1.7.075-2.869.35-3.881.744-1.056.412-1.95.956-2.837 1.85a7.833 7.833 0 0 0-1.85 2.831C.444 6.538.169 7.7.094 9.4.019 11.113 0 11.656 0 16s.019 4.887.094 6.594c.075 1.7.35 2.869.744 3.881.413 1.056.956 1.95 1.85 2.837a7.82 7.82 0 0 0 2.831 1.844c1.019.394 2.181.669 3.881.744 1.706.075 2.25.094 6.594.094s4.888-.019 6.594-.094c1.7-.075 2.869-.35 3.881-.744 1.05-.406 1.944-.956 2.831-1.844s1.438-1.781 1.844-2.831c.394-1.019.669-2.181.744-3.881.075-1.706.094-2.25.094-6.594s-.019-4.887-.094-6.594c-.075-1.7-.35-2.869-.744-3.881a7.506 7.506 0 0 0-1.831-2.844A7.82 7.82 0 0 0 26.482.843C25.463.449 24.301.174 22.601.099c-1.712-.081-2.256-.1-6.6-.1z"/><path d="M16 7.781c-4.537 0-8.219 3.681-8.219 8.219s3.681 8.219 8.219 8.219 8.219-3.681 8.219-8.219A8.221 8.221 0 0 0 16 7.781zm0 13.55a5.331 5.331 0 1 1 0-10.663 5.331 5.331 0 0 1 0 10.663zM26.462 7.456a1.919 1.919 0 1 1-3.838 0 1.919 1.919 0 0 1 3.838 0z"/></symbol>
<symbol id="icon-whatsapp" viewBox="0 0 32 32"><path d="M27.281 4.65C24.287 1.65 20.306 0 16.062 0 7.324 0 .212 7.112.212 15.856c0 2.794.731 5.525 2.119 7.925L.081 32l8.406-2.206a15.858 15.858 0 0 0 7.575 1.931h.006c8.738 0 15.856-7.113 15.856-15.856 0-4.238-1.65-8.219-4.644-11.219zm-11.212 24.4a13.17 13.17 0 0 1-6.713-1.837l-.481-.288-4.987 1.306 1.331-4.863-.313-.5a13.086 13.086 0 0 1-2.019-7.012c0-7.269 5.912-13.181 13.188-13.181 3.519 0 6.831 1.375 9.319 3.862a13.108 13.108 0 0 1 3.856 9.325c-.006 7.275-5.919 13.188-13.181 13.188zm7.225-9.875c-.394-.2-2.344-1.156-2.706-1.288s-.625-.2-.894.2c-.262.394-1.025 1.288-1.256 1.556-.231.262-.462.3-.856.1s-1.675-.619-3.188-1.969c-1.175-1.05-1.975-2.35-2.206-2.744s-.025-.613.175-.806c.181-.175.394-.463.594-.694s.262-.394.394-.662c.131-.262.069-.494-.031-.694s-.894-2.15-1.219-2.944c-.319-.775-.65-.669-.894-.681-.231-.012-.494-.012-.756-.012s-.694.1-1.056.494c-.363.394-1.387 1.356-1.387 3.306s1.419 3.831 1.619 4.1c.2.262 2.794 4.269 6.769 5.981.944.406 1.681.65 2.256.837.95.3 1.813.256 2.494.156.762-.113 2.344-.956 2.675-1.881s.331-1.719.231-1.881c-.094-.175-.356-.275-.756-.475z"/></symbol>
<symbol id="icon-arrow" viewBox="0 0 43 32">
<path fill="#2285e0" style="fill: var(--color1, #2285e0)" d="M1.067 8.056l6.357-6.357 14.123 14.549 14.123-14.549 6.357 6.357-20.48 20.523-20.48-20.523z"></path>
</symbol>

<symbol id="icon-question" viewBox="0 0 32 32">
<path fill="#fff" style="fill: var(--color1, #fff)" d="M16 8c-2.896 0.003-5.243 2.35-5.246 5.246v0h2.668c0.040-1.394 1.179-2.508 2.579-2.508s2.539 1.115 2.579 2.505l0 0.004c0 0.796-0.642 1.376-1.622 2.168-0.32 0.25-0.628 0.516-0.92 0.798-1.332 1.33-1.372 2.74-1.372 2.9v0.888h2.668v-0.844c0-0.020 0.042-0.514 0.586-1.058 0.2-0.2 0.452-0.4 0.714-0.61 1.040-0.84 2.61-2.112 2.61-4.242-0.001-2.896-2.348-5.244-5.244-5.246h-0zM14.666 21.334h2.668v2.666h-2.668v-2.666z"></path>
<path fill="#fff" style="fill: var(--color1, #fff)" d="M16 2.664c-7.361 0.008-13.326 5.973-13.334 13.333v0.001c0.009 7.36 5.974 13.324 13.333 13.332h0.001c7.36-0.008 13.324-5.971 13.334-13.329v-0.001c-0.007-7.362-5.972-13.328-13.333-13.336h-0.001zM16 26.664c-5.887-0.008-10.658-4.779-10.666-10.665v-0.001c0.007-5.888 4.778-10.66 10.665-10.668h0.001c5.89 0.007 10.662 4.78 10.668 10.669v0.001c-0.009 5.887-4.78 10.657-10.667 10.664h-0.001z"></path>
</symbol>

<symbol id="icon-menu_24px" viewBox="0 0 48 32">
<path d="M0 5.333v-5.333h48v5.333h-48zM0 18.667h48v-5.333h-48v5.333zM0 32h48v-5.333h-48v5.333z"></path>
</symbol>

<symbol id="icon-Menu" viewBox="0 0 38 32">
<path fill="none" stroke="#2285e0" style="stroke: var(--color1, #2285e0)" stroke-linejoin="miter" stroke-linecap="butt" stroke-miterlimit="4" stroke-width="6" d="M0 4h38"></path>
<path fill="none" stroke="#9fb7d3" style="stroke: var(--color2, #9fb7d3)" stroke-linejoin="miter" stroke-linecap="butt" stroke-miterlimit="4" stroke-width="6" d="M20 16h18"></path>
<path fill="none" stroke="#9fb7d3" style="stroke: var(--color2, #9fb7d3)" stroke-linejoin="miter" stroke-linecap="butt" stroke-miterlimit="4" stroke-width="6" d="M0 28h38"></path>
</symbol>

<symbol id="icon-facebook3" viewBox="0 0 32 32">
<path fill="#3b5998" style="fill: var(--color1, #3b5998)" d="M16 0c8.837 0 16 7.164 16 16 0 8.837-7.163 16-16 16s-16-7.163-16-16c0-8.836 7.163-16 16-16z"></path>
<path fill="#fff" style="fill: var(--color2, #fff)" d="M17.948 11.015h2.062v-3.046h-2.424v0.011c-2.937 0.104-3.539 1.755-3.592 3.489h-0.006v1.521h-2v2.983h2v7.996h3.014v-7.996h2.469l0.477-2.983h-2.945v-0.919c0-0.586 0.39-1.056 0.945-1.056z"></path>
</symbol>

<symbol id="icon-instagram" viewBox="0 0 32 32">
<path fill="#6c27b3" style="fill: var(--color3, #6c27b3)" d="M16 32c8.837 0 16-7.163 16-16s-7.163-16-16-16c-8.837 0-16 7.163-16 16s7.163 16 16 16z"></path>
<path fill="#501a96" style="fill: var(--color4, #501a96)" d="M23.419 8.308c-1.912 0.242-3.905 0.234-5.911 0.043-2.801-0.216-6.896-1.508-8.404 1.077-2.423 4.14-1.228 9.44-0.663 14.13l8.421 8.419c8.149-0.433 14.68-6.963 15.114-15.112l-8.557-8.557z"></path>
<path fill="#fff" style="fill: var(--color2, #fff)" d="M19.702 6.842h-7.403c-3.009 0-5.456 2.448-5.456 5.456v7.403c0 3.009 2.448 5.457 5.457 5.457h7.403c3.009 0 5.457-2.448 5.457-5.457v-7.403c-0-3.009-2.448-5.456-5.457-5.456zM23.316 19.702c0 1.996-1.618 3.614-3.614 3.614h-7.403c-1.996 0-3.614-1.618-3.614-3.614v-7.403c0-1.996 1.618-3.614 3.614-3.614h7.403c1.996 0 3.614 1.618 3.614 3.614v7.403z"></path>
<path fill="#fff" style="fill: var(--color2, #fff)" d="M16 11.263c-2.612 0-4.737 2.125-4.737 4.737s2.125 4.737 4.737 4.737 4.737-2.125 4.737-4.737c0-2.612-2.125-4.737-4.737-4.737zM16 18.895c-1.599 0-2.895-1.296-2.895-2.895s1.296-2.895 2.895-2.895c1.599 0 2.895 1.296 2.895 2.895s-1.296 2.895-2.895 2.895z"></path>
<path fill="#d1d1d1" style="fill: var(--color5, #d1d1d1)" d="M21.881 11.298c0 0.627-0.508 1.135-1.135 1.135s-1.135-0.508-1.135-1.135 0.508-1.135 1.135-1.135c0.627 0 1.135 0.508 1.135 1.135z"></path>
<path fill="#d1d1d1" style="fill: var(--color5, #d1d1d1)" d="M19.702 6.842h-3.738v1.843h3.738c1.996 0 3.614 1.618 3.614 3.614v7.403c0 1.996-1.618 3.614-3.614 3.614h-3.738v1.843h3.738c3.009 0 5.456-2.448 5.456-5.457v-7.403c0-3.009-2.448-5.456-5.456-5.456z"></path>
<path fill="#d1d1d1" style="fill: var(--color5, #d1d1d1)" d="M16 11.263c-0.012 0-0.024 0.001-0.036 0.001v1.843c0.012-0 0.024-0.001 0.036-0.001 1.599 0 2.895 1.296 2.895 2.895s-1.296 2.895-2.895 2.895c-0.012 0-0.024-0.001-0.036-0.001v1.843c0.012 0 0.024 0.001 0.036 0.001 2.612 0 4.737-2.125 4.737-4.737s-2.125-4.737-4.737-4.737z"></path>
</symbol>
<symbol id="icon-closeblack" viewBox="0 0 32 32"> <path d="M26.667 7.303l-1.97-1.97-7.808 7.808-7.808-7.808-1.97 1.97 7.808 7.808-7.808 7.808 1.97 1.97 7.808-7.808 7.808 7.808 1.97-1.97-7.808-7.808 7.808-7.808z"></path> </symbol>
</defs></svg>